<svg width="35" height="28" viewBox="0 0 35 28" fill="none" xmlns="http://www.w3.org/2000/svg">
<path d="M25.6657 6.83348L25.4036 7.07551C24.6657 7.52412 23.8799 7.86161 23.0297 8.02828C22.8596 8.06168 22.669 7.99873 22.49 7.96652C22.4709 7.96327 22.4664 7.87786 22.4649 7.87136C21.859 7.81876 21.2332 7.70764 20.6118 7.72715C19.9996 7.74635 19.3926 7.90446 18.781 7.9875C18.6356 8.0073 18.4569 8.01705 18.3374 7.95293C17.9573 7.74606 17.5984 7.50255 17.2055 7.28977C17.3068 7.38966 17.4208 7.48009 17.5075 7.59121C17.9246 8.12699 18.4944 8.19614 19.1292 8.1858C19.8857 8.17331 20.6423 8.20538 21.3949 8.28184C21.9365 8.33711 22.3217 8.66071 22.5028 9.19797C22.7688 9.9879 22.2645 10.8529 21.4304 10.9897C21.0571 11.0509 20.6764 11.0675 20.2415 11.11L20.4646 11.2717C19.8391 11.5359 19.4587 12.1538 18.7756 12.272C18.1691 12.3769 17.5543 12.4408 16.9493 12.5477C16.4694 12.6322 15.9961 12.7546 15.5194 12.8607C15.3365 12.9021 15.1551 12.9493 14.9055 13.0132L15.2859 12.2271L15.2233 12.1922C15.1 12.4236 14.9681 12.6509 14.8563 12.8876C14.7628 13.0856 14.6696 13.2534 14.4056 13.2531C14.3461 13.2531 14.2957 13.3876 14.2269 13.442C13.8867 13.7106 13.5418 13.9739 13.1989 14.2372C13.1989 14.2372 13.1781 14.2168 13.1816 14.2056C13.3976 13.562 13.1751 13.1063 12.6157 12.7378C12.296 12.527 12.027 12.2354 11.761 11.9546C11.6824 11.8716 11.6344 11.6798 11.6782 11.5873C11.7139 11.5125 11.9085 11.4847 12.0327 11.4835C12.6189 11.4788 13.2049 11.4903 13.7902 11.459L12.3714 11.3934L12.3785 11.3535L15.2579 10.2376C14.1855 10.2648 13.8319 9.74616 13.2826 9.0635L14.5004 8.82708L14.4888 8.74522L12.4482 8.94441C12.3088 8.958 12.1697 8.97396 12.0312 8.98637C11.5719 9.02893 11.5576 9.01888 11.4599 8.54102C11.3055 9.50826 10.4768 9.61081 9.82416 9.92082C9.6633 9.99706 9.48636 10.0429 9.31299 10.0896C8.83191 10.2196 8.38746 10.4037 8.07468 10.8393C8.15134 10.5199 8.22799 10.2004 8.30465 9.88063L8.23881 9.86467C8.142 10.1954 8.03745 10.5246 7.94987 10.8576C7.75594 11.5964 7.25132 12.1216 6.69874 12.5903C6.55993 12.7085 6.25192 12.6385 6.02105 12.6364C5.80628 12.6343 5.59031 12.5814 5.37792 12.5962C4.51167 12.6553 3.73389 11.8813 3.80091 10.9741C3.90845 11.1041 4.00288 11.2182 4.06514 11.2938C4.02879 10.9983 3.95343 10.6762 3.96683 10.3582C3.97249 10.2172 4.13157 10.0012 4.26472 9.95924C5.60521 9.53841 6.73717 8.76916 7.82743 7.86663C7.83548 7.94613 7.84412 7.99696 7.84441 8.04779C7.84471 8.09862 7.83607 8.14176 7.89357 8.20294C7.93438 8.0209 8.0011 7.84033 8.01063 7.65681C8.02821 7.31844 8.1849 7.08674 8.495 6.97297C8.91799 6.81811 9.23256 6.53855 9.47534 6.17505C9.75773 5.75305 10.1638 5.56361 10.6645 5.5051L10.8706 6.07782C10.9022 6.03172 10.9189 6.01872 10.9162 6.01015C10.7217 5.43802 10.7309 5.42354 11.3377 5.36295C11.7846 5.31803 12.2338 5.23499 12.6812 5.23854C13.3318 5.24326 13.708 4.85436 14.0485 4.40102C14.2409 4.1448 14.4813 4.12471 14.674 4.38359C14.7253 4.45274 14.7813 4.51805 14.8084 4.55174C16.3234 3.34393 17.9454 2.9039 19.8063 3.59336L19.5332 3.26769C19.8769 3.16485 20.1843 3.08683 20.4816 2.98015C20.7435 2.88617 21.0119 2.78924 21.2457 2.64354C21.7882 2.30546 22.1096 1.84563 21.9669 1.12041L22.658 1.84711C23.0202 1.61985 23.2835 1.76554 23.3074 2.21858C22.9434 2.26054 22.8558 2.52445 22.8605 2.83268C22.8641 3.09865 22.8585 3.37674 22.9302 3.62853C23.0667 4.10609 22.9156 4.49766 22.6154 4.83722C22.3771 5.10821 22.0837 5.33399 21.8042 5.58933C22.4754 5.31833 22.8534 4.80116 23.0851 4.15899C23.1149 4.07683 23.0685 3.9672 23.0554 3.87056C23.0148 3.55671 22.9448 3.24316 22.9398 2.92872C22.9326 2.45589 23.1611 2.30044 23.5695 2.51351C23.7655 2.61547 23.848 2.55518 23.9606 2.43934C24.0262 2.66571 24.0917 2.89208 24.137 3.049L24.2243 2.1645L23.9651 2.44584L23.7548 2.46623C23.5838 2.13229 23.7896 1.90651 23.9961 1.69787C24.2225 1.4712 24.3857 1.22739 24.4054 0.89818C24.4113 0.861562 24.4249 0.826604 24.4455 0.795627C24.466 0.764649 24.493 0.738359 24.5245 0.718501C24.7926 0.570739 25.0685 0.435684 25.3413 0.296788C25.3229 0.284376 25.2749 0.25305 25.2049 0.20813C26.1581 -0.186098 27 -0.00375938 27.8025 0.615363C27.8025 0.512521 27.8025 0.455189 27.8025 0.382786C28.2648 0.739188 28.5281 1.13017 28.6339 1.61542L28.4286 1.52676L28.4718 1.96354L28.5314 1.72535L28.6228 1.70053L28.9493 2.71624C28.7798 2.71358 28.6267 2.67221 28.5159 2.72245C28.4382 2.75791 28.4179 2.91808 28.367 3.03038C28.2395 3.01295 28.2395 3.01295 28.0015 2.71151C27.9931 2.89208 28.0387 3.15864 27.9586 3.38088C27.7798 3.8744 27.6878 3.90543 27.1421 3.77747C26.9368 3.7293 26.7879 3.72752 26.748 3.90602L27.4382 3.86908C27.2755 4.31769 27.0161 4.59548 26.6529 4.79968C26.3074 4.99443 25.9776 5.21785 25.6467 5.43713C25.4453 5.57041 25.2573 5.59317 25.0324 5.47791C24.4858 5.19864 24.2115 4.74885 24.1298 4.16047C24.1117 4.02807 24.0726 3.89834 24.0434 3.76742L23.9714 3.78042C24.0309 4.14096 24.0905 4.5012 24.1543 4.88391L23.3598 4.76895C23.6931 4.96459 24.1343 4.92706 24.3708 5.34345L23.3687 5.24534C23.3664 5.26307 23.3637 5.2808 23.3613 5.29853C23.6729 5.35763 23.9868 5.41053 24.2958 5.47584C24.683 5.5577 25.0852 5.60794 25.4483 5.75304C25.6723 5.8417 25.8498 6.06985 26.0143 6.26312C26.0569 6.31277 26.0009 6.48328 25.9446 6.56899C25.8778 6.6736 25.7619 6.74689 25.6657 6.83348ZM16.3082 6.2318L16.7399 6.70906C16.6612 6.52554 16.5632 6.36744 16.7545 6.18037C16.7953 6.14048 16.7086 5.9735 16.6806 5.86327L16.6082 5.8816C16.6291 5.97025 16.6502 6.05891 16.6755 6.16589L16.3082 6.2318ZM16.5129 9.59485L16.5451 9.68115L18.2007 9.23254C18.1974 9.21688 18.1939 9.20299 18.1903 9.18585L16.5129 9.59485ZM16.0592 4.87504L15.9788 4.96134L16.5894 5.43418L16.6368 5.37891L16.0592 4.87504ZM19.2877 6.55037L19.2662 6.60297L20.0854 6.97356L20.123 6.88342L19.2877 6.55037Z" fill="#FF0037"/>
<path d="M12.4548 13.7548C12.4058 14.1202 12.3856 14.5234 12.2825 14.9006C12.2467 15.0322 12.0057 15.1867 11.8585 15.1867C11.0532 15.1867 10.9125 15.1298 10.5908 14.3847C10.5187 14.2178 10.3082 14.1041 10.2677 13.9379C10.1414 13.4195 10.0628 12.8884 9.9738 12.3607C9.95518 12.2499 9.97587 12.1325 9.96937 12.0201C9.95636 11.782 10.0714 11.629 10.2715 11.5556C10.4531 11.4899 10.6395 11.4397 10.8288 11.4057C11.0931 11.3565 11.2936 11.4197 11.5017 11.6553C11.8207 12.0167 12.2139 12.3081 12.5867 12.6153C12.8888 12.863 12.8927 13.5443 12.5749 13.7669C12.5462 13.7855 12.4876 13.7586 12.4548 13.7548ZM10.2375 12.0247H10.1893L10.2928 13.1272L10.3407 13.1228L10.2375 12.0247Z" fill="#FF0037"/>
<path d="M21.3109 1.50623L21.83 1.69975C21.7257 2.23649 21.3944 2.58195 20.9473 2.76875C20.3529 3.01697 19.7365 3.20249 19.1335 3.42704C18.8948 3.51596 18.704 3.45359 18.5543 3.25335C18.482 3.15739 18.4471 3.02689 18.4172 2.96099C17.3124 2.82217 16.3588 2.37531 15.4474 1.74102C15.4779 1.703 15.5106 1.6671 15.5452 1.63354C15.5698 1.61179 15.6038 1.60155 15.6709 1.56445C14.961 1.75637 14.3001 1.95085 13.6318 2.10822C12.7418 2.31998 11.8447 2.5007 10.9532 2.70126C10.7012 2.75788 10.4753 2.82921 10.4071 3.18522C10.3778 3.33812 10.1908 3.4715 10.0523 3.57834C9.81955 3.75372 9.57827 3.91518 9.32951 4.06198C9.26388 4.10164 9.16925 4.08469 9.0881 4.09397C9.1045 3.99801 9.09425 3.87837 9.14259 3.80608C9.2422 3.65766 9.37316 3.53388 9.47306 3.3797C9.0588 3.44847 8.71778 3.6196 8.5083 4.03383C8.45733 4.13459 8.33633 4.19376 8.24756 4.27117L8.18369 4.21487C8.19072 4.12371 8.17813 4.02295 8.20889 3.94331C8.29238 3.7242 8.30352 3.53132 8.24639 3.28406C8.20654 3.11165 8.38584 2.87911 8.46788 2.67247L8.06738 2.75532C8.1582 2.24577 8.63839 1.75253 9.02657 1.76373C9.11886 1.76597 9.2091 1.87376 9.29025 1.92686C9.32628 1.90735 9.41505 1.81363 9.48771 1.82674C10.2187 1.95981 10.8492 1.64442 11.4952 1.34694C12.4441 0.909999 13.4056 0.505366 14.3663 0.0994534C14.7931 -0.0806322 15.2077 0.0146896 15.6451 0.142637C16.1578 0.292655 16.6998 0.356308 17.2327 0.383496C17.8887 0.415483 18.5025 0.577337 19.137 0.875774L18.9378 0.971734C18.9715 0.986128 18.9894 1.00212 19.002 0.997963C19.8516 0.729914 20.6089 0.949343 21.3071 1.49952L21.3109 1.50623Z" fill="#FF0037"/>
<path d="M24.2428 8.82743C24.3659 9.24633 24.498 9.66187 24.6389 10.0741C25.0021 11.1395 25.5242 12.0596 26.5282 12.5441C26.6679 12.6122 26.7855 12.7405 26.9132 12.841L26.878 12.8945L25.908 12.2686C26.0069 13.1288 26.4056 13.8072 26.871 14.4511C27.3925 15.1733 27.9197 15.8908 28.4298 16.6227C28.6549 16.9453 28.5912 17.3226 28.4697 17.6613C28.3859 17.8987 28.2295 17.972 28.0454 17.9919L28.7298 18.0026C28.8751 17.8367 28.9932 17.7011 29.0834 17.5978L30.0221 17.6283C30.2679 17.9033 30.5562 17.8559 30.8185 18.0343C30.8185 18.0343 31.6622 18.0038 31.7962 17.7114C31.7554 17.6844 31.7131 17.6599 31.6697 17.6381C31.2507 17.4649 30.8207 17.3217 30.4176 17.1142C30.0145 16.9068 29.56 16.7437 29.3561 16.2232C29.1128 15.6049 28.8533 14.994 28.5879 14.3867C28.399 13.9548 28.2384 13.4923 27.975 13.1193C27.6034 12.593 27.3272 12.0422 27.1484 11.4053C26.9771 10.7944 26.8344 10.155 26.3991 9.6748C26.376 9.64945 26.3517 9.60179 26.3578 9.57186C26.4603 9.06325 26.3877 8.57083 26.2779 8.07322C26.1701 7.58447 25.7281 7.2402 25.7815 6.68424C25.7815 6.67263 25.7536 6.65797 25.741 6.64453L25.4952 6.89471C25.2996 7.04745 25.1231 7.23775 24.9085 7.34497C24.3797 7.61012 23.835 7.8374 23.2539 8.09949C23.4997 8.23848 23.7207 8.39366 23.9615 8.48988C24.1272 8.55953 24.1939 8.66155 24.2428 8.82743Z" fill="#FF0037"/>
<path d="M1.79808 12.7869L1.42383 12.5304C1.48928 12.3821 1.53728 12.2027 1.6363 12.0617C2.06023 11.4569 2.55096 10.9329 3.34075 10.9156C3.47502 10.9128 3.6462 11.0193 3.74354 11.1278C3.91506 11.3196 4.04328 11.5529 4.20708 11.7945L3.7855 11.8637C4.35813 11.7455 4.72365 12.2093 5.22042 12.3797L4.34772 12.7523L4.61255 12.8971L3.60559 13.7536L3.60962 13.763C3.47837 13.7526 3.34512 13.7536 3.21589 13.7284C2.81311 13.6544 2.412 13.5715 2.01022 13.492C1.93973 13.2567 1.86902 13.0217 1.79808 12.7869ZM2.6577 12.2529L2.60064 12.3237C2.71879 12.4132 2.88628 12.604 2.94636 12.5733C3.1105 12.4889 3.22965 12.3113 3.3666 12.1706L3.30585 12.1153C3.1924 12.2345 3.07861 12.3534 2.95509 12.4827L2.6577 12.2529Z" fill="#FF0037"/>
<path d="M2.06796 28.0002H0V17.7767H2.06796V18.6407C2.39038 18.2235 3.10195 17.5596 4.4577 17.5596C5.10253 17.5596 6.13425 17.6985 6.96608 18.4553C7.50838 18.9494 8.06777 19.7835 8.06777 21.1117C8.06777 22.6249 7.33911 23.4437 6.91546 23.8144C6.35607 24.2933 5.50845 24.6793 4.42384 24.6793C3.9154 24.6793 2.88142 24.6021 2.06796 23.5982V28.0002ZM2.55932 19.6763C2.10182 20.0314 1.86452 20.4947 1.86452 21.1125C1.86452 21.7304 2.13567 22.2398 2.54159 22.5641C2.81274 22.7803 3.25348 23.0121 3.89573 23.0121C4.5728 23.0121 5.01451 22.7651 5.28566 22.5333C5.7264 22.1625 5.93049 21.6067 5.93049 21.1125C5.93049 20.6184 5.70996 20.0623 5.30307 19.7071C4.93036 19.3983 4.38806 19.2282 3.89638 19.2282C3.35762 19.2282 2.93236 19.3672 2.55932 19.6763Z" fill="black"/>
<path d="M10.1964 17.5596V21.2011C10.1964 21.5429 10.2235 22.0038 10.549 22.3307C10.7522 22.5241 11.0777 22.6578 11.3896 22.6578C11.7014 22.6578 12.0269 22.5241 12.2302 22.3307C12.5557 22.0038 12.5828 21.5429 12.5828 21.2011V17.5596H14.2369V21.4986C14.2369 22.0782 14.1693 22.8509 13.5183 23.4753C12.9766 23.9955 12.1082 24.2036 11.3896 24.2036C10.671 24.2036 9.80302 23.9955 9.26085 23.4753C8.60983 22.8509 8.54199 22.0782 8.54199 21.4986V17.5596H10.1964Z" fill="black"/>
<path d="M15.6617 17.7677H17.5517V18.496C18.2642 17.6339 19.147 17.5596 19.5499 17.5596C20.9595 17.5596 21.5017 18.4077 21.6715 18.7337C21.9956 18.2282 22.663 17.5596 23.8246 17.5596C24.8624 17.5596 25.3737 18.0201 25.6371 18.3472C26.0708 18.8971 26.1018 19.447 26.1018 20.1604V24.2033H24.2118V20.6956C24.2118 19.9376 24.0415 19.5958 23.9021 19.4323C23.6543 19.1349 23.3128 19.1052 23.1277 19.1052C22.6165 19.1052 22.2911 19.3283 22.0896 19.6707C21.8418 20.0569 21.8265 20.5771 21.8265 20.9189V24.2036H19.9365V20.6956C19.9365 19.9376 19.7661 19.5958 19.6268 19.4323C19.3789 19.1349 19.0374 19.1052 18.8524 19.1052C18.3411 19.1052 18.0158 19.3283 17.8143 19.6707C17.5664 20.0569 17.5511 20.5771 17.5511 20.9189V24.2036H15.6611L15.6617 17.7677Z" fill="black"/>
<path d="M32.2233 17.7614H34.1694V24.0018H32.2233V23.1947C31.5214 24.1027 30.5961 24.2036 30.1015 24.2036C27.98 24.2036 26.5762 22.7048 26.5762 20.8745C26.5762 19.0296 27.9639 17.5596 30.0053 17.5596C30.5318 17.5596 31.5687 17.6459 32.2227 18.5685L32.2233 17.7614ZM28.586 20.8745C28.586 21.8689 29.3838 22.6472 30.5002 22.6472C31.6167 22.6472 32.4148 21.8689 32.4148 20.8745C32.4148 19.8801 31.617 19.116 30.5002 19.116C29.3835 19.116 28.586 19.8798 28.586 20.8745Z" fill="black"/>
</svg>
